<svg width="16" height="16" viewBox="0 0 16 16" fill="none" xmlns="http://www.w3.org/2000/svg">
<circle cx="8" cy="8" r="8" fill="#BFC8D2"/>
<path d="M8 13C10.7614 13 13 10.7614 13 8C13 5.23858 10.7614 3 8 3C5.23858 3 3 5.23858 3 8C3 10.7614 5.23858 13 8 13ZM8 3.625C8.41053 3.625 8.87923 3.99391 9.26361 4.81759C9.39954 5.10887 9.51767 5.44361 9.6129 5.8125H6.3871C6.48233 5.44361 6.60046 5.10887 6.73639 4.81759C7.12077 3.99391 7.58947 3.625 8 3.625ZM6.17002 4.55329C5.99727 4.92346 5.85312 5.3481 5.74332 5.8125H4.2103C4.73309 4.90874 5.56989 4.20936 6.57151 3.86352C6.42061 4.07014 6.28642 4.30385 6.17002 4.55329ZM5.6204 6.4375C5.54202 6.9302 5.5 7.45583 5.5 8C5.5 8.54416 5.54202 9.0698 5.6204 9.5625H3.91227C3.72667 9.07725 3.625 8.5505 3.625 8C3.625 7.4495 3.72667 6.92275 3.91227 6.4375H5.6204ZM5.74332 10.1875C5.85311 10.6519 5.99727 11.0765 6.17002 11.4467C6.28642 11.6961 6.42061 11.9299 6.57151 12.1365C5.56989 11.7906 4.73309 11.0913 4.2103 10.1875H5.74332ZM6.3871 10.1875H9.6129C9.51767 10.5564 9.39954 10.8911 9.26361 11.1824C8.87923 12.0061 8.41053 12.375 8 12.375C7.58947 12.375 7.12077 12.0061 6.73639 11.1824C6.60046 10.8911 6.48233 10.5564 6.3871 10.1875ZM9.74615 9.5625H6.25385C6.1709 9.0783 6.125 8.55207 6.125 8C6.125 7.44793 6.1709 6.9217 6.25385 6.4375H9.74615C9.8291 6.9217 9.875 7.44793 9.875 8C9.875 8.55207 9.8291 9.0783 9.74615 9.5625ZM10.2567 10.1875H11.7897C11.2669 11.0913 10.4301 11.7906 9.42849 12.1365C9.57939 11.9299 9.71358 11.6961 9.82998 11.4467C10.0027 11.0765 10.1469 10.6519 10.2567 10.1875ZM12.0877 9.5625H10.3796C10.458 9.0698 10.5 8.54416 10.5 8C10.5 7.45583 10.458 6.9302 10.3796 6.4375H12.0877C12.2733 6.92275 12.375 7.4495 12.375 8C12.375 8.5505 12.2733 9.07725 12.0877 9.5625ZM9.42849 3.86352C10.4301 4.20936 11.2669 4.90874 11.7897 5.8125H10.2567C10.1469 5.3481 10.0027 4.92346 9.82998 4.55329C9.71358 4.30385 9.57939 4.07014 9.42849 3.86352Z" fill="#404851"/>
</svg>
