<svg width="20" height="20" viewBox="0 0 20 20" fill="none" xmlns="http://www.w3.org/2000/svg">
<rect width="20" height="20" rx="10" fill="#FF0000"/>
<path d="M16.3641 6.78201C16.2121 6.20601 15.7621 5.75401 15.1901 5.60001C14.1541 5.32001 10.0021 5.32001 10.0021 5.32001C10.0021 5.32001 5.84811 5.32001 4.81411 5.60001C4.24211 5.75401 3.79211 6.20601 3.64011 6.78201C3.36011 7.82401 3.36011 10 3.36011 10C3.36011 10 3.36011 12.176 3.63811 13.218C3.79011 13.794 4.24011 14.246 4.81211 14.4C5.84811 14.68 10.0001 14.68 10.0001 14.68C10.0001 14.68 14.1541 14.68 15.1881 14.4C15.7601 14.246 16.2101 13.794 16.3621 13.218C16.6401 12.176 16.6401 10 16.6401 10C16.6401 10 16.6401 7.82401 16.3641 6.78201ZM8.64211 11.974V8.02601L12.1121 10L8.64211 11.974Z" fill="white"/>
</svg>
